<?xml version="1.0" encoding="utf-8"?>
<!-- Generator: Adobe Illustrator 23.0.3, SVG Export Plug-In . SVG Version: 6.00 Build 0)  -->
<svg version="1.1" xmlns="http://www.w3.org/2000/svg" xmlns:xlink="http://www.w3.org/1999/xlink" x="0px" y="0px"
	 viewBox="0 0 50 50" style="enable-background:new 0 0 50 50;" xml:space="preserve">
<style type="text/css">
	.st0{fill:#FFFFFF;}
	.st1{display:none;}
	.st2{display:inline;}
	.st3{display:inline;fill:#FFFFFF;}
</style>
<g id="_x36_">
	<path d="M42.86,50H7.14C3.2,50,0,46.8,0,42.86V7.14C0,3.2,3.2,0,7.14,0h35.71C46.8,0,50,3.2,50,7.14v35.71
		C50,46.8,46.8,50,42.86,50z"/>
	<circle class="st0" cx="11.63" cy="11.22" r="5.09"/>
	<circle class="st0" cx="11.63" cy="25" r="5.09"/>
	<circle class="st0" cx="11.63" cy="38.78" r="5.09"/>
	<circle class="st0" cx="38.37" cy="11.22" r="5.09"/>
	<circle class="st0" cx="38.37" cy="25" r="5.09"/>
	<circle class="st0" cx="38.37" cy="38.78" r="5.09"/>
</g>
<g id="_x35_" class="st1">
	<path class="st2" d="M42.86,50H7.14C3.2,50,0,46.8,0,42.86V7.14C0,3.2,3.2,0,7.14,0h35.71C46.8,0,50,3.2,50,7.14v35.71
		C50,46.8,46.8,50,42.86,50z"/>
	<circle class="st3" cx="11.63" cy="11.22" r="5.09"/>
	<circle class="st3" cx="25" cy="25" r="5.09"/>
	<circle class="st3" cx="11.63" cy="38.78" r="5.09"/>
	<circle class="st3" cx="38.37" cy="11.22" r="5.09"/>
	<circle class="st3" cx="38.37" cy="38.78" r="5.09"/>
</g>
<g id="_x34_" class="st1">
	<path class="st2" d="M42.86,50H7.14C3.2,50,0,46.8,0,42.86V7.14C0,3.2,3.2,0,7.14,0h35.71C46.8,0,50,3.2,50,7.14v35.71
		C50,46.8,46.8,50,42.86,50z"/>
	<circle class="st3" cx="11.63" cy="11.22" r="5.09"/>
	<circle class="st3" cx="11.63" cy="38.78" r="5.09"/>
	<circle class="st3" cx="38.37" cy="11.22" r="5.09"/>
	<circle class="st3" cx="38.37" cy="38.78" r="5.09"/>
</g>
<g id="_x33_" class="st1">
	<path class="st2" d="M42.86,50H7.14C3.2,50,0,46.8,0,42.86V7.14C0,3.2,3.2,0,7.14,0h35.71C46.8,0,50,3.2,50,7.14v35.71
		C50,46.8,46.8,50,42.86,50z"/>
	<circle class="st3" cx="11.63" cy="38.78" r="5.09"/>
	<circle class="st3" cx="38.37" cy="11.22" r="5.09"/>
	<circle class="st3" cx="25" cy="25" r="5.09"/>
</g>
<g id="_x32_" class="st1">
	<path class="st2" d="M42.86,50H7.14C3.2,50,0,46.8,0,42.86V7.14C0,3.2,3.2,0,7.14,0h35.71C46.8,0,50,3.2,50,7.14v35.71
		C50,46.8,46.8,50,42.86,50z"/>
	<circle class="st3" cx="11.63" cy="38.78" r="5.09"/>
	<circle class="st3" cx="38.37" cy="11.22" r="5.09"/>
</g>
<g id="_x31_" class="st1">
	<path class="st2" d="M42.86,50H7.14C3.2,50,0,46.8,0,42.86V7.14C0,3.2,3.2,0,7.14,0h35.71C46.8,0,50,3.2,50,7.14v35.71
		C50,46.8,46.8,50,42.86,50z"/>
	<circle class="st3" cx="25" cy="25" r="5.09"/>
</g>
</svg>
