<?xml version="1.0" encoding="utf-8"?>
<!-- Generator: Adobe Illustrator 23.0.3, SVG Export Plug-In . SVG Version: 6.00 Build 0)  -->
<svg version="1.1" id="Layer_1" xmlns="http://www.w3.org/2000/svg" xmlns:xlink="http://www.w3.org/1999/xlink" x="0px" y="0px"
	 viewBox="0 0 50 50" style="enable-background:new 0 0 50 50;" xml:space="preserve">
<style type="text/css">
	.st0{display:none;}
	.st1{display:inline;}
	.st2{display:inline;fill:#FFFFFF;}
</style>
<g id="_x36_" class="st0">
	<path class="st1" d="M42.9,50H7.1C3.2,50,0,46.8,0,42.9V7.1C0,3.2,3.2,0,7.1,0h35.7c4,0,7.2,3.2,7.2,7.1v35.7
		C50,46.8,46.8,50,42.9,50z"/>
	<circle class="st2" cx="11.6" cy="11.2" r="5.1"/>
	<circle class="st2" cx="11.6" cy="25" r="5.1"/>
	<circle class="st2" cx="11.6" cy="38.8" r="5.1"/>
	<circle class="st2" cx="38.4" cy="11.2" r="5.1"/>
	<circle class="st2" cx="38.4" cy="25" r="5.1"/>
	<circle class="st2" cx="38.4" cy="38.8" r="5.1"/>
</g>
<g id="_x35_" class="st0">
	<path class="st1" d="M42.9,50H7.1C3.2,50,0,46.8,0,42.9V7.1C0,3.2,3.2,0,7.1,0h35.7c4,0,7.2,3.2,7.2,7.1v35.7
		C50,46.8,46.8,50,42.9,50z"/>
	<circle class="st2" cx="11.6" cy="11.2" r="5.1"/>
	<circle class="st2" cx="25" cy="25" r="5.1"/>
	<circle class="st2" cx="11.6" cy="38.8" r="5.1"/>
	<circle class="st2" cx="38.4" cy="11.2" r="5.1"/>
	<circle class="st2" cx="38.4" cy="38.8" r="5.1"/>
</g>
<g id="_x34_" class="st0">
	<path class="st1" d="M42.9,50H7.1C3.2,50,0,46.8,0,42.9V7.1C0,3.2,3.2,0,7.1,0h35.7c4,0,7.2,3.2,7.2,7.1v35.7
		C50,46.8,46.8,50,42.9,50z"/>
	<circle class="st2" cx="11.6" cy="11.2" r="5.1"/>
	<circle class="st2" cx="11.6" cy="38.8" r="5.1"/>
	<circle class="st2" cx="38.4" cy="11.2" r="5.1"/>
	<circle class="st2" cx="38.4" cy="38.8" r="5.1"/>
</g>
<g id="_x33_" class="st0">
	<path class="st1" d="M42.9,50H7.1C3.2,50,0,46.8,0,42.9V7.1C0,3.2,3.2,0,7.1,0h35.7c4,0,7.2,3.2,7.2,7.1v35.7
		C50,46.8,46.8,50,42.9,50z"/>
	<circle class="st2" cx="11.6" cy="38.8" r="5.1"/>
	<circle class="st2" cx="38.4" cy="11.2" r="5.1"/>
	<circle class="st2" cx="25" cy="25" r="5.1"/>
</g>
<g id="_x32_" class="st0">
	<path class="st1" d="M42.9,50H7.1C3.2,50,0,46.8,0,42.9V7.1C0,3.2,3.2,0,7.1,0h35.7c4,0,7.2,3.2,7.2,7.1v35.7
		C50,46.8,46.8,50,42.9,50z"/>
	<circle class="st2" cx="11.6" cy="38.8" r="5.1"/>
	<circle class="st2" cx="38.4" cy="11.2" r="5.1"/>
</g>
<g id="_x31_">
	<path d="M42.9,50H7.1C3.2,50,0,46.8,0,42.9V7.1C0,3.2,3.2,0,7.1,0h35.7c4,0,7.2,3.2,7.2,7.1v35.7C50,46.8,46.8,50,42.9,50z"/>
</g>
</svg>
